<?xml version="1.0" encoding="iso-8859-1"?>
<!-- Generator: Adobe Illustrator 19.0.0, SVG Export Plug-In . SVG Version: 6.00 Build 0)  -->
<svg version="1.1" id="Capa_1" xmlns="http://www.w3.org/2000/svg" xmlns:xlink="http://www.w3.org/1999/xlink" x="0px" y="0px"
	 viewBox="0 0 512 512" style="enable-background:new 0 0 512 512;" xml:space="preserve">
<circle style="fill:#F43380;" cx="256" cy="256" r="256"/>
<g>
	<ellipse style="fill:#3C435B;" cx="256" cy="26.901" rx="55.589" ry="26.9"/>
	<path style="fill:#3C435B;" d="M367.011,125.741v310.941H138.346c-1.484-1.755-2.926-3.532-4.336-5.329V125.741L367.011,125.741
		L367.011,125.741z"/>
</g>
<rect x="209.115" y="322.497" style="fill:#F9CCB2;" width="96.904" height="62.307"/>
<path style="fill:#E5B59C;" d="M234.668,322.501L234.668,322.501l-25.55-0.001v0.001h-0.001v26.348l0.001,0.001v26.069h25.55
	v-17.495c6.889,1.38,14.014,2.108,21.309,2.108c18.061,0,35.089-4.442,50.049-12.285v-24.745h-71.357V322.501z"/>
<path style="fill:#F9CCB2;" d="M353.886,132.106v108.878c0,29.79-10.961,56.759-28.672,76.288
	c-17.721,19.519-42.193,31.598-69.235,31.598c-54.073,0-97.907-48.306-97.907-107.886V120.623L353.886,132.106z"/>
<g>
	<path style="fill:#E5B59C;" d="M184.135,240.981V122.152l-26.058-1.529v120.358c0,59.583,43.832,107.886,97.903,107.886l0,0
		c4.418,0,8.766-0.328,13.029-0.953C221.098,340.892,184.135,295.696,184.135,240.981z"/>
	<path style="fill:#E5B59C;" d="M330.858,184.461h-43.286c-3.065,0-5.549,2.485-5.549,5.549l0,0c0,3.065,2.485,5.549,5.549,5.549
		h43.286c3.065,0,5.549-2.485,5.549-5.549l0,0C336.406,186.946,333.922,184.461,330.858,184.461z"/>
	<rect x="158.072" y="150.403" style="fill:#E5B59C;" width="195.814" height="69.653"/>
	<path style="fill:#E5B59C;" d="M188.206,184.461c-3.055,0-5.676,2.391-5.732,5.445c-0.056,3.113,2.449,5.653,5.548,5.653h30.411
		c12.075,0,21.863,9.789,21.863,21.863v53.676h5.51c7.077,0,12.815-5.738,12.815-12.815v-57.128c0-9.221-7.475-16.695-16.695-16.695
		H188.206z"/>
	<path style="fill:#E5B59C;" d="M261.008,307.155h-10.056c-2.564,0-4.644,2.078-4.644,4.644l0,0c0,2.564,2.078,4.644,4.644,4.644
		h10.056c2.564,0,4.644-2.078,4.644-4.644l0,0C265.651,309.233,263.572,307.155,261.008,307.155z"/>
</g>
<path style="fill:#434D70;" d="M387.424,148.109v258.529l-27.901-13.182V190.454l-211.429-26.122v235.983l-23.526,12.395V148.109
	c0-58.521,38.251-108.104,91.115-125.115h0.005c12.696-4.092,26.233-6.296,40.29-6.296h0.032
	C328.591,16.697,387.424,75.53,387.424,148.109z"/>
<path style="fill:#FFFFFF;" d="M327.438,219.704c0,4.638-3.756,8.4-8.395,8.4h-28.408c-2.32,0-4.418-0.941-5.935-2.46
	c-1.522-1.522-2.46-3.622-2.46-5.941c0-1.427,0.356-2.771,0.985-3.949c1.413-2.645,1.787-6.86,4.996-6.86l32.721-0.434
	c2.32,0,4.128,4.914,4.619,2.825c0.583-2.481,0.498,3.732,0.89,4.467C327.08,216.931,327.438,218.276,327.438,219.704z"/>
<g>
	<path style="fill:#3C435B;" d="M317.719,217.8c0,4.214-2.023,7.959-5.156,10.305h-15.455c-3.132-2.346-5.156-6.092-5.156-10.305
		c0-2.368,0.641-4.585,1.76-6.49l11.815-2.096l10.431,2.096C317.078,213.215,317.719,215.432,317.719,217.8z"/>
	<path style="fill:#3C435B;" d="M290.634,211.31h28.408c2.32,0,4.418,0.941,5.936,2.46c0.583,0.583,1.079,1.253,1.471,1.987
		c12.446-1.444,10.183-13.93,10.183-13.93h-44.435c-4.768,0-9.019,3.336-9.818,8.035c-0.364,2.138-0.001,4.157,0.848,5.894
		C284.64,213.112,287.425,211.31,290.634,211.31z"/>
</g>
<path style="fill:#FFFFFF;" d="M229.721,219.703c0,4.638-3.756,8.4-8.395,8.4h-28.408c-2.32,0-4.418-0.941-5.935-2.46
	c-1.522-1.522-2.46-3.622-2.46-5.941c0-1.427,0.356-2.771,0.985-3.949c1.413-2.645,1.787-6.86,4.996-6.86l32.721-0.434
	c2.32,0,4.128,4.914,4.62,2.825c0.583-2.481,0.498,3.732,0.89,4.467C229.363,216.931,229.721,218.276,229.721,219.703z"/>
<g>
	<path style="fill:#3C435B;" d="M220.002,217.799c0,4.214-2.023,7.959-5.156,10.305h-15.455c-3.132-2.346-5.156-6.092-5.156-10.305
		c0-2.368,0.641-4.585,1.76-6.49l11.815-2.096l10.431,2.096C219.362,213.214,220.002,215.431,220.002,217.799z"/>
	<path style="fill:#3C435B;" d="M221.598,211.31H193.19c-2.32,0-4.418,0.941-5.936,2.46c-0.583,0.583-1.079,1.253-1.471,1.987
		c-12.446-1.444-10.183-13.93-10.183-13.93h44.435c4.768,0,9.019,3.336,9.818,8.035c0.364,2.138,0.001,4.157-0.848,5.894
		C227.592,213.112,224.808,211.31,221.598,211.31z"/>
</g>
<path style="fill:#F2EBEC;" d="M424.532,448.7c-32.883,28.787-73.216,49.298-117.718,58.253C290.388,510.265,273.398,512,256,512
	c-0.763,0-1.526,0-2.288-0.021h-0.01c-63.645-0.554-121.741-24.336-166.233-63.279c8.61-23.74,24.294-44.084,44.502-58.493
	c15.151-10.804,32.831-18.265,51.994-21.316h0.01c2.853-0.449,5.747-0.815,8.673-1.055c3.594-0.324,7.241-0.491,10.919-0.491
	h104.866c3.678,0,7.314,0.157,10.909,0.491c2.926,0.24,5.831,0.596,8.694,1.055c19.163,3.051,36.843,10.512,51.994,21.316
	C400.238,404.616,415.922,424.96,424.532,448.7z"/>
<g>
	<path style="fill:#E6DFE1;" d="M114.671,448.701c15.067-41.535,51.785-72.673,96.507-79.809c6.374-1.014,12.925-1.546,19.592-1.546
		h-27.209c-6.666,0-13.218,0.533-19.592,1.546c-44.722,7.137-81.439,38.275-96.507,79.809c6.864,6.008,14.055,11.651,21.536,16.907
		C111.081,459.782,113.021,454.108,114.671,448.701z"/>
	<path style="fill:#E6DFE1;" d="M306.813,506.953C290.388,510.265,273.398,512,256,512c-0.763,0-1.526,0-2.288-0.021h-0.01
		c-31.326-28.348-78.148-81.899-69.736-143.088h0.01c6.374-1.014,12.925-1.546,19.592-1.546h2.132l-1.891,9.812
		C203.807,427.645,306.813,506.953,306.813,506.953z"/>
</g>
<path style="fill:#F9CCB2;" d="M306.03,367.344c0,18.296-14.838,33.134-33.134,33.134h-30.647c-2.111,0-4.169-0.199-6.165-0.575
	c-6.677-1.254-12.643-4.514-17.262-9.132c-5.998-5.998-9.707-14.284-9.707-23.427H306.03z"/>
<path style="fill:#E5B59C;" d="M236.084,356.007v43.896c-6.677-1.254-12.643-4.514-17.262-9.132
	c-5.998-5.998-9.707-14.284-9.707-23.427v-11.337H236.084z"/>
<path style="fill:#F4BF23;" d="M328.035,368.891c-2.863-0.46-5.768-0.815-8.694-1.055c-7.722,27.721-33.155,48.065-63.342,48.065
	c-28.338,0-52.496-17.93-61.743-43.06c-0.596-1.641-1.139-3.312-1.609-5.005c-2.926,0.24-5.82,0.606-8.673,1.055h-0.01
	c-19.163,3.051-36.843,10.512-51.994,21.316c0.731,7.356,2.09,14.524,4.044,21.452c14.744,52.381,62.882,90.781,119.986,90.781
	c64.648,0,117.802-49.225,124.029-112.233C364.878,379.402,347.199,371.942,328.035,368.891z"/>
<path style="fill:#D9A60C;" d="M194.257,372.84c-23.019,7.105-43.165,20.773-58.243,38.818c-1.954-6.928-3.312-14.096-4.044-21.452
	c15.151-10.804,32.831-18.265,51.994-21.316h0.01c2.853-0.449,5.747-0.815,8.673-1.055
	C193.118,369.528,193.661,371.2,194.257,372.84z"/>
<circle style="fill:#E88742;" cx="167.184" cy="391.074" r="37.455"/>
<circle style="fill:#CC6D30;" cx="167.184" cy="391.074" r="21.413"/>
<g>
	<polygon style="fill:#F4BF23;" points="71.15,191.498 103.02,155.777 71.15,0.282 39.281,155.777 	"/>
	<path style="fill:#F4BF23;" d="M79.412,134.844v306.5c-5.778-5.507-11.285-11.264-16.52-17.283V134.844H79.412z"/>
</g>
<polygon style="fill:#D9A60C;" points="71.15,0.282 71.15,191.498 39.281,155.777 "/>
<g>
	<circle style="fill:#F4BF23;" cx="71.147" cy="218.645" r="18.295"/>
	<path style="fill:#F4BF23;" d="M390.792,158.221c0-87.382-60.35-158.219-134.795-158.219S121.202,70.839,121.202,158.221l0,0
		C207.227,118.776,304.766,118.776,390.792,158.221L390.792,158.221z"/>
</g>
<path style="fill:#D9A60C;" d="M254.911,0.01c-42.917,1.024-78.13,61.774-82.951,139.839c-17.238,4.66-34.21,10.783-50.759,18.369
	C121.202,71.262,180.963,0.69,254.911,0.01z"/>
<g>
	<path style="fill:#3C435B;" d="M197.772,53.934c-13.685,3.12-23.851,11.97-25.794,21.42c5.846,7.674,18.845,11.244,32.529,8.124
		c13.685-3.12,23.851-11.97,25.794-21.42C224.455,54.385,211.457,50.815,197.772,53.934z"/>
	<path style="fill:#3C435B;" d="M316.246,54.548c-13.117-4.995-26.485-3.269-33.344,3.515c0.608,9.628,9.443,19.808,22.56,24.803
		c13.118,4.995,26.485,3.269,33.344-3.515C338.197,69.723,329.362,59.542,316.246,54.548z"/>
</g>
<path style="fill:#F4BF23;" d="M265.34,162.24h-18.687c-4.938,0-8.942-4.003-8.942-8.942V95.367h36.571v57.931
	C274.283,158.237,270.279,162.24,265.34,162.24z"/>
<path style="fill:#FF679C;" d="M269.563,299.123h-27.167c-2.308,0-4.18-1.871-4.18-4.18l0,0c0-2.308,1.871-4.18,4.18-4.18h27.167
	c2.308,0,4.18,1.871,4.18,4.18l0,0C273.742,297.252,271.871,299.123,269.563,299.123z"/>
<path style="fill:#F4BF23;" d="M477.769,383.958c-28.641,49.549-73.415,88.597-127.143,109.986
	C362.726,433.465,414.574,387.344,477.769,383.958z"/>
<g>
</g>
<g>
</g>
<g>
</g>
<g>
</g>
<g>
</g>
<g>
</g>
<g>
</g>
<g>
</g>
<g>
</g>
<g>
</g>
<g>
</g>
<g>
</g>
<g>
</g>
<g>
</g>
<g>
</g>
</svg>
